# xmcd
#
# Track frame offsets: 
#        150
#        18583
#        37222
#        54717
#
# Disc length: 1021 seconds
#
# Revision: 0
# Processed by: cddbd v1.5.2PL0 Copyright (c) Steve Scherf et al.
# Submitted via: ExactAudioCopy v0.99pb4
#
DISCID=3403fb04
DTITLE=AA&EH ja Paikalliset Rentut - Helsinki Hengitt‰‰ EP
DYEAR=2008
DGENRE=Rap
TTITLE0=Helsinki Hengitt‰‰
TTITLE1=Aerosolilegendaa
TTITLE2=÷iseen Aikaan
TTITLE3=Maniton Manifesti
EXTD=
EXTT0=
EXTT1=
EXTT2=
EXTT3=
PLAYORDER=
